<svg width="64" height="64" viewBox="0 0 64 64" fill="none" xmlns="http://www.w3.org/2000/svg">
<rect width="64" height="64" rx="20" fill="#2A5B45"/>
<path d="M27.7078 34.6262C27.3172 34.2357 26.6841 34.2357 26.2935 34.6262C25.903 35.0168 25.903 35.6499 26.2935 36.0404L27.7078 34.6262ZM30.334 38.6667L29.6269 39.3738C30.0174 39.7643 30.6506 39.7643 31.0411 39.3738L30.334 38.6667ZM37.7078 32.7071C38.0983 32.3166 38.0983 31.6834 37.7078 31.2929C37.3172 30.9024 36.6841 30.9024 36.2935 31.2929L37.7078 32.7071ZM42.6673 23.6667V43.6667H44.6673V23.6667H42.6673ZM40.334 46H23.6673V48H40.334V46ZM21.334 43.6667V23.6667H19.334V43.6667H21.334ZM23.6673 21.3333H27.0007V19.3333H23.6673V21.3333ZM37.0007 21.3333H40.334V19.3333H37.0007V21.3333ZM23.6673 46C22.3787 46 21.334 44.9553 21.334 43.6667H19.334C19.334 46.0599 21.2741 48 23.6673 48V46ZM42.6673 43.6667C42.6673 44.9553 41.6226 46 40.334 46V48C42.7272 48 44.6673 46.0599 44.6673 43.6667H42.6673ZM44.6673 23.6667C44.6673 21.2734 42.7272 19.3333 40.334 19.3333V21.3333C41.6226 21.3333 42.6673 22.378 42.6673 23.6667H44.6673ZM21.334 23.6667C21.334 22.378 22.3787 21.3333 23.6673 21.3333V19.3333C21.2741 19.3333 19.334 21.2734 19.334 23.6667H21.334ZM26.2935 36.0404L29.6269 39.3738L31.0411 37.9596L27.7078 34.6262L26.2935 36.0404ZM31.0411 39.3738L37.7078 32.7071L36.2935 31.2929L29.6269 37.9596L31.0411 39.3738ZM30.334 18H33.6673V16H30.334V18ZM33.6673 22.6667H30.334V24.6667H33.6673V22.6667ZM30.334 22.6667C29.0453 22.6667 28.0007 21.622 28.0007 20.3333H26.0007C26.0007 22.7266 27.9408 24.6667 30.334 24.6667V22.6667ZM36.0007 20.3333C36.0007 21.622 34.956 22.6667 33.6673 22.6667V24.6667C36.0606 24.6667 38.0007 22.7266 38.0007 20.3333H36.0007ZM33.6673 18C34.956 18 36.0007 19.0447 36.0007 20.3333H38.0007C38.0007 17.9401 36.0606 16 33.6673 16V18ZM30.334 16C27.9408 16 26.0007 17.9401 26.0007 20.3333H28.0007C28.0007 19.0447 29.0453 18 30.334 18V16Z" fill="white"/>
</svg>
