<svg width="64" height="64" viewBox="0 0 64 64" fill="none" xmlns="http://www.w3.org/2000/svg">
<rect width="64" height="64" rx="20" fill="#2A5B45"/>
<path d="M32 25.3333V47M32 25.3333C32 25.3333 32 22.8454 32 22C32 20.1591 33.4924 18.6667 35.3333 18.6667C37.1743 18.6667 38.6667 20.1591 38.6667 22C38.6667 23.8409 37.1743 25.3333 35.3333 25.3333C34.3378 25.3333 32 25.3333 32 25.3333ZM32 25.3333C32 25.3333 32 22.1049 32 21.1667C32 18.8655 30.1345 17 27.8333 17C25.5321 17 23.6667 18.8655 23.6667 21.1667C23.6667 23.4679 25.5321 25.3333 27.8333 25.3333C29.1963 25.3333 32 25.3333 32 25.3333ZM20.3333 32H43.6667M20.3333 32C18.4924 32 17 30.5076 17 28.6667C17 26.8257 18.4924 25.3333 20.3333 25.3333H43.6667C45.5076 25.3333 47 26.8257 47 28.6667C47 30.5076 45.5076 32 43.6667 32M20.3333 32L20.3333 43.6667C20.3333 45.5076 21.8257 47 23.6667 47H40.3333C42.1743 47 43.6667 45.5076 43.6667 43.6667V32" stroke="white" stroke-width="2" stroke-linecap="round" stroke-linejoin="round"/>
</svg>
