<svg width="21" height="20" viewBox="0 0 21 20" fill="none" xmlns="http://www.w3.org/2000/svg">
<path d="M1.95312 3C1.95312 1.89543 2.84856 1 3.95312 1H7.23237C7.6628 1 8.04494 1.27543 8.18105 1.68377L9.67886 6.17721C9.83623 6.64932 9.6225 7.16531 9.17739 7.38787L6.92013 8.5165C8.02237 10.9612 9.99191 12.9308 12.4366 14.033L13.5653 11.7757C13.7878 11.3306 14.3038 11.1169 14.7759 11.2743L19.2694 12.7721C19.6777 12.9082 19.9531 13.2903 19.9531 13.7208V17C19.9531 18.1046 19.0577 19 17.9531 19H16.9531C8.66885 19 1.95312 12.2843 1.95312 4V3Z" stroke="white" stroke-width="2" stroke-linecap="round" stroke-linejoin="round"/>
</svg>
