<svg width="24" height="25" viewBox="0 0 24 25" fill="none" xmlns="http://www.w3.org/2000/svg">
<path d="M3 5.39258C3 4.28801 3.89543 3.39258 5 3.39258H8.27924C8.70967 3.39258 9.09181 3.66801 9.22792 4.07635L10.7257 8.56979C10.8831 9.0419 10.6694 9.55789 10.2243 9.78044L7.96701 10.9091C9.06925 13.3538 11.0388 15.3233 13.4835 16.4256L14.6121 14.1683C14.8347 13.7232 15.3507 13.5095 15.8228 13.6668L20.3162 15.1647C20.7246 15.3008 21 15.6829 21 16.1133V19.3926C21 20.4971 20.1046 21.3926 19 21.3926H18C9.71573 21.3926 3 14.6768 3 6.39258V5.39258Z" stroke="#6B7280" stroke-width="2" stroke-linecap="round" stroke-linejoin="round"/>
</svg>
