<svg width="64" height="64" viewBox="0 0 64 64" fill="none" xmlns="http://www.w3.org/2000/svg">
<rect width="64" height="64" rx="20" fill="#2A5B45"/>
<path d="M33.6667 38.6673V22.0007C33.6667 21.0802 32.9205 20.334 32 20.334H18.6667C17.7462 20.334 17 21.0802 17 22.0007V38.6673C17 39.5878 17.7462 40.334 18.6667 40.334H20.3333M33.6667 38.6673C33.6667 39.5878 32.9205 40.334 32 40.334H27M33.6667 38.6673L33.6667 25.334C33.6667 24.4135 34.4129 23.6673 35.3333 23.6673H39.643C40.085 23.6673 40.5089 23.8429 40.8215 24.1555L46.5118 29.8458C46.8244 30.1584 47 30.5823 47 31.0243V38.6673C47 39.5878 46.2538 40.334 45.3333 40.334H43.6667M33.6667 38.6673C33.6667 39.5878 34.4129 40.334 35.3333 40.334H37M20.3333 40.334C20.3333 42.1749 21.8257 43.6673 23.6667 43.6673C25.5076 43.6673 27 42.1749 27 40.334M20.3333 40.334C20.3333 38.493 21.8257 37.0007 23.6667 37.0007C25.5076 37.0007 27 38.493 27 40.334M37 40.334C37 42.1749 38.4924 43.6673 40.3333 43.6673C42.1743 43.6673 43.6667 42.1749 43.6667 40.334M37 40.334C37 38.493 38.4924 37.0007 40.3333 37.0007C42.1743 37.0007 43.6667 38.493 43.6667 40.334" stroke="white" stroke-width="2"/>
</svg>
